<svg width="1186" height="863" viewBox="0 0 1186 863" fill="none" xmlns="http://www.w3.org/2000/svg">
<path d="M690.959 152.116C713.18 152.116 731.195 134.102 731.195 111.88C731.195 89.6583 713.18 71.644 690.959 71.644C668.737 71.644 650.723 89.6583 650.723 111.88C650.723 134.102 668.737 152.116 690.959 152.116Z" fill="#F2F2F2"/>
<path d="M1003.08 749.263C1062.89 703.711 1091.45 627.164 1073.57 554.144C1073.13 552.329 1072.66 550.519 1072.16 548.713C1060.31 505.369 1030.98 464.174 988.229 450.324C952.334 438.695 913.154 447.638 875.708 443.013C802.198 433.935 745.207 374.457 705.107 312.183C665.007 249.909 634.189 180.202 580.904 128.754C493.074 43.9518 349.8 25.6937 240.902 80.8939C132.005 136.094 62.6386 258.561 65.5969 380.614C68.5553 502.667 141.013 619.358 246.239 681.27C284.895 704.014 329.604 720.127 374.099 714.489C412.706 709.596 447.786 688.852 486.212 682.693C546.626 673.01 606.655 700.325 658.909 732.156C711.163 763.987 761.636 801.715 821.015 816.472C878.673 830.801 950.104 789.616 1003.08 749.263Z" fill="url(#paint0_linear_24_334)"/>
<path d="M917.155 83.457C915.844 82.5829 914.518 81.7541 913.206 80.9102C875.309 56.6726 834.689 36.9821 792.186 22.2457L782.33 158.2H719.853V2.39958C715.92 1.58585 711.957 0.817317 707.994 0.0939941V158.2H633.748C592.874 158.2 553.675 141.963 524.773 113.062C495.872 84.16 479.635 44.9608 479.635 4.08751V4.08738C475.656 4.94632 471.708 5.86555 467.76 6.84505V158.2H407.287L397.899 28.5598C354.221 45.3112 312.754 67.3401 274.422 94.1561C273.759 94.6082 273.096 95.0753 272.448 95.5274C269.118 97.8631 265.833 100.244 262.562 102.655V621.323H440.786L437.637 577.697L420.307 338.172H769.295L751.966 577.697L748.816 621.323H925.066V88.7011C922.444 86.9229 919.807 85.1749 917.155 83.457ZM467.76 298.615H417.444L408.146 170.075H467.76V298.615ZM707.994 298.615H623.486V296.069C623.486 294.844 623.244 293.632 622.775 292.501C622.306 291.37 621.619 290.343 620.753 289.478C619.886 288.613 618.858 287.927 617.726 287.46C616.595 286.993 615.382 286.754 614.158 286.756H577.419C576.196 286.755 574.985 286.996 573.855 287.464C572.724 287.932 571.698 288.618 570.833 289.482C569.968 290.347 569.282 291.374 568.814 292.504C568.346 293.634 568.106 294.845 568.106 296.069V298.615H479.635V170.075H707.994V298.615ZM719.853 298.615V170.075H781.471L772.174 298.615H719.853Z" fill="url(#paint1_linear_24_334)"/>
<path d="M0.304688 654.537C13.3957 670.048 27.5551 684.625 42.6794 698.162L1143.61 699.669C1158.73 686.132 1172.89 671.555 1185.98 656.044L0.304688 654.537Z" fill="#55768E"/>
<path d="M746.879 514.846V643.995C746.88 645.641 747.535 647.219 748.698 648.383C749.862 649.546 751.44 650.201 753.086 650.202H944.472C946.118 650.201 947.696 649.546 948.86 648.383C950.023 647.219 950.678 645.641 950.679 643.995V514.846C950.675 513.201 950.02 511.625 948.856 510.463C947.693 509.301 946.116 508.647 944.472 508.645H753.086C751.442 508.647 749.865 509.301 748.702 510.463C747.538 511.625 746.883 513.201 746.879 514.846V514.846Z" fill="#55768E"/>
<path d="M751.369 516.452V642.402C751.371 643.281 751.721 644.124 752.342 644.746C752.964 645.367 753.807 645.717 754.687 645.719H942.879C943.758 645.717 944.601 645.367 945.223 644.746C945.845 644.124 946.195 643.281 946.196 642.402V516.452C946.196 515.572 945.847 514.728 945.225 514.104C944.603 513.481 943.759 513.13 942.879 513.128H754.687C753.806 513.13 752.962 513.481 752.34 514.104C751.719 514.728 751.369 515.572 751.369 516.452V516.452Z" fill="#63BDFF"/>
<path d="M742.876 669.182C743.227 669.622 743.672 669.976 744.18 670.219C744.687 670.462 745.243 670.586 745.805 670.584H950.734C951.295 670.583 951.848 670.457 952.354 670.216C952.86 669.975 953.305 669.623 953.658 669.188C954.011 668.753 954.263 668.244 954.395 667.7C954.526 667.155 954.535 666.588 954.42 666.039L951.239 650.929C951.107 650.313 950.823 649.739 950.413 649.261C950.003 648.782 949.48 648.414 948.891 648.19C948.465 648.022 948.011 647.937 947.553 647.937H748.973C748.515 647.937 748.062 648.022 747.635 648.19C747.046 648.414 746.523 648.782 746.113 649.261C745.703 649.739 745.419 650.313 745.287 650.929L742.106 666.039C741.993 666.587 742.003 667.154 742.137 667.698C742.27 668.241 742.522 668.749 742.876 669.182V669.182Z" fill="#585497"/>
<path d="M940.522 654.446H945.362C945.768 654.446 946.098 654.116 946.098 653.71V651.394C946.098 650.988 945.768 650.659 945.362 650.659H940.522C940.115 650.659 939.786 650.988 939.786 651.394V653.71C939.786 654.116 940.115 654.446 940.522 654.446Z" fill="#55768E"/>
<path d="M927.898 654.446H932.739C933.145 654.446 933.475 654.116 933.475 653.71V651.394C933.475 650.988 933.145 650.659 932.739 650.659H927.898C927.492 650.659 927.163 650.988 927.163 651.394V653.71C927.163 654.116 927.492 654.446 927.898 654.446Z" fill="#55768E"/>
<path d="M915.275 654.446H920.115C920.521 654.446 920.851 654.116 920.851 653.71V651.394C920.851 650.988 920.521 650.659 920.115 650.659H915.275C914.868 650.659 914.539 650.988 914.539 651.394V653.71C914.539 654.116 914.868 654.446 915.275 654.446Z" fill="#55768E"/>
<path d="M902.652 654.446H907.492C907.898 654.446 908.228 654.116 908.228 653.71V651.394C908.228 650.988 907.898 650.659 907.492 650.659H902.652C902.245 650.659 901.916 650.988 901.916 651.394V653.71C901.916 654.116 902.245 654.446 902.652 654.446Z" fill="#55768E"/>
<path d="M890.027 654.446H894.868C895.274 654.446 895.604 654.116 895.604 653.71V651.394C895.604 650.988 895.274 650.659 894.868 650.659H890.027C889.621 650.659 889.292 650.988 889.292 651.394V653.71C889.292 654.116 889.621 654.446 890.027 654.446Z" fill="#55768E"/>
<path d="M877.404 654.446H882.245C882.651 654.446 882.98 654.116 882.98 653.71V651.394C882.98 650.988 882.651 650.659 882.245 650.659H877.404C876.998 650.659 876.669 650.988 876.669 651.394V653.71C876.669 654.116 876.998 654.446 877.404 654.446Z" fill="#55768E"/>
<path d="M864.78 654.446H869.621C870.027 654.446 870.356 654.116 870.356 653.71V651.394C870.356 650.988 870.027 650.659 869.621 650.659H864.78C864.374 650.659 864.045 650.988 864.045 651.394V653.71C864.045 654.116 864.374 654.446 864.78 654.446Z" fill="#55768E"/>
<path d="M852.157 654.446H856.998C857.404 654.446 857.733 654.116 857.733 653.71V651.394C857.733 650.988 857.404 650.659 856.998 650.659H852.157C851.751 650.659 851.422 650.988 851.422 651.394V653.71C851.422 654.116 851.751 654.446 852.157 654.446Z" fill="#55768E"/>
<path d="M839.533 654.446H844.374C844.78 654.446 845.109 654.116 845.109 653.71V651.394C845.109 650.988 844.78 650.659 844.374 650.659H839.533C839.127 650.659 838.798 650.988 838.798 651.394V653.71C838.798 654.116 839.127 654.446 839.533 654.446Z" fill="#55768E"/>
<path d="M826.91 654.446H831.751C832.157 654.446 832.486 654.116 832.486 653.71V651.394C832.486 650.988 832.157 650.659 831.751 650.659H826.91C826.504 650.659 826.174 650.988 826.174 651.394V653.71C826.174 654.116 826.504 654.446 826.91 654.446Z" fill="#55768E"/>
<path d="M814.287 654.446H819.128C819.534 654.446 819.863 654.116 819.863 653.71V651.394C819.863 650.988 819.534 650.659 819.128 650.659H814.287C813.881 650.659 813.552 650.988 813.552 651.394V653.71C813.552 654.116 813.881 654.446 814.287 654.446Z" fill="#55768E"/>
<path d="M801.663 654.446H806.504C806.91 654.446 807.239 654.116 807.239 653.71V651.394C807.239 650.988 806.91 650.659 806.504 650.659H801.663C801.257 650.659 800.927 650.988 800.927 651.394V653.71C800.927 654.116 801.257 654.446 801.663 654.446Z" fill="#55768E"/>
<path d="M789.04 654.446H793.881C794.287 654.446 794.616 654.116 794.616 653.71V651.394C794.616 650.988 794.287 650.659 793.881 650.659H789.04C788.634 650.659 788.305 650.988 788.305 651.394V653.71C788.305 654.116 788.634 654.446 789.04 654.446Z" fill="#55768E"/>
<path d="M776.416 654.446H781.256C781.663 654.446 781.992 654.116 781.992 653.71V651.394C781.992 650.988 781.663 650.659 781.256 650.659H776.416C776.01 650.659 775.68 650.988 775.68 651.394V653.71C775.68 654.116 776.01 654.446 776.416 654.446Z" fill="#55768E"/>
<path d="M763.793 654.446H768.634C769.04 654.446 769.369 654.116 769.369 653.71V651.394C769.369 650.988 769.04 650.659 768.634 650.659H763.793C763.387 650.659 763.057 650.988 763.057 651.394V653.71C763.057 654.116 763.387 654.446 763.793 654.446Z" fill="#55768E"/>
<path d="M751.169 654.446H756.01C756.416 654.446 756.745 654.116 756.745 653.71V651.394C756.745 650.988 756.416 650.659 756.01 650.659H751.169C750.763 650.659 750.433 650.988 750.433 651.394V653.71C750.433 654.116 750.763 654.446 751.169 654.446Z" fill="#55768E"/>
<path d="M940.671 660.757H945.511C945.918 660.757 946.247 660.428 946.247 660.022V657.706C946.247 657.3 945.918 656.97 945.511 656.97H940.671C940.265 656.97 939.935 657.3 939.935 657.706V660.022C939.935 660.428 940.265 660.757 940.671 660.757Z" fill="#55768E"/>
<path d="M928.047 660.757H932.887C933.294 660.757 933.623 660.428 933.623 660.022V657.706C933.623 657.3 933.294 656.97 932.887 656.97H928.047C927.641 656.97 927.311 657.3 927.311 657.706V660.022C927.311 660.428 927.641 660.757 928.047 660.757Z" fill="#55768E"/>
<path d="M915.424 660.757H920.264C920.671 660.757 921 660.428 921 660.022V657.706C921 657.3 920.671 656.97 920.264 656.97H915.424C915.018 656.97 914.688 657.3 914.688 657.706V660.022C914.688 660.428 915.018 660.757 915.424 660.757Z" fill="#55768E"/>
<path d="M902.8 660.757H907.64C908.047 660.757 908.376 660.428 908.376 660.022V657.706C908.376 657.3 908.047 656.97 907.64 656.97H902.8C902.394 656.97 902.064 657.3 902.064 657.706V660.022C902.064 660.428 902.394 660.757 902.8 660.757Z" fill="#55768E"/>
<path d="M890.177 660.757H895.017C895.424 660.757 895.753 660.428 895.753 660.022V657.706C895.753 657.3 895.424 656.97 895.017 656.97H890.177C889.771 656.97 889.441 657.3 889.441 657.706V660.022C889.441 660.428 889.771 660.757 890.177 660.757Z" fill="#55768E"/>
<path d="M877.553 660.757H882.393C882.8 660.757 883.129 660.428 883.129 660.022V657.706C883.129 657.3 882.8 656.97 882.393 656.97H877.553C877.146 656.97 876.817 657.3 876.817 657.706V660.022C876.817 660.428 877.146 660.757 877.553 660.757Z" fill="#55768E"/>
<path d="M864.93 660.757H869.77C870.176 660.757 870.506 660.428 870.506 660.022V657.706C870.506 657.3 870.176 656.97 869.77 656.97H864.93C864.524 656.97 864.194 657.3 864.194 657.706V660.022C864.194 660.428 864.524 660.757 864.93 660.757Z" fill="#55768E"/>
<path d="M852.307 660.757H857.147C857.553 660.757 857.883 660.428 857.883 660.022V657.706C857.883 657.3 857.553 656.97 857.147 656.97H852.307C851.9 656.97 851.571 657.3 851.571 657.706V660.022C851.571 660.428 851.9 660.757 852.307 660.757Z" fill="#55768E"/>
<path d="M839.683 660.757H844.523C844.929 660.757 845.259 660.428 845.259 660.022V657.706C845.259 657.3 844.929 656.97 844.523 656.97H839.683C839.277 656.97 838.947 657.3 838.947 657.706V660.022C838.947 660.428 839.277 660.757 839.683 660.757Z" fill="#55768E"/>
<path d="M827.06 660.757H831.9C832.306 660.757 832.636 660.428 832.636 660.022V657.706C832.636 657.3 832.306 656.97 831.9 656.97H827.06C826.653 656.97 826.324 657.3 826.324 657.706V660.022C826.324 660.428 826.653 660.757 827.06 660.757Z" fill="#55768E"/>
<path d="M814.436 660.757H819.276C819.682 660.757 820.012 660.428 820.012 660.022V657.706C820.012 657.3 819.682 656.97 819.276 656.97H814.436C814.029 656.97 813.7 657.3 813.7 657.706V660.022C813.7 660.428 814.029 660.757 814.436 660.757Z" fill="#55768E"/>
<path d="M801.813 660.757H806.653C807.059 660.757 807.389 660.428 807.389 660.022V657.706C807.389 657.3 807.059 656.97 806.653 656.97H801.813C801.406 656.97 801.077 657.3 801.077 657.706V660.022C801.077 660.428 801.406 660.757 801.813 660.757Z" fill="#55768E"/>
<path d="M789.19 660.757H794.03C794.436 660.757 794.766 660.428 794.766 660.022V657.706C794.766 657.3 794.436 656.97 794.03 656.97H789.19C788.783 656.97 788.454 657.3 788.454 657.706V660.022C788.454 660.428 788.783 660.757 789.19 660.757Z" fill="#55768E"/>
<path d="M776.565 660.757H781.406C781.812 660.757 782.142 660.428 782.142 660.022V657.706C782.142 657.3 781.812 656.97 781.406 656.97H776.565C776.159 656.97 775.83 657.3 775.83 657.706V660.022C775.83 660.428 776.159 660.757 776.565 660.757Z" fill="#55768E"/>
<path d="M763.943 660.757H768.783C769.189 660.757 769.519 660.428 769.519 660.022V657.706C769.519 657.3 769.189 656.97 768.783 656.97H763.943C763.536 656.97 763.207 657.3 763.207 657.706V660.022C763.207 660.428 763.536 660.757 763.943 660.757Z" fill="#55768E"/>
<path d="M751.318 660.757H756.159C756.565 660.757 756.895 660.428 756.895 660.022V657.706C756.895 657.3 756.565 656.97 756.159 656.97H751.318C750.912 656.97 750.583 657.3 750.583 657.706V660.022C750.583 660.428 750.912 660.757 751.318 660.757Z" fill="#55768E"/>
<path d="M835.896 668.332H884.919C885.325 668.332 885.654 668.002 885.654 667.596V665.28C885.654 664.874 885.325 664.544 884.919 664.544H835.896C835.49 664.544 835.161 664.874 835.161 665.28V667.596C835.161 668.002 835.49 668.332 835.896 668.332Z" fill="#55768E"/>
<path d="M783.958 540.683H779.673C778.374 540.683 777.32 541.736 777.32 543.036C777.32 544.335 778.374 545.388 779.673 545.388H783.958C785.257 545.388 786.31 544.335 786.31 543.036C786.31 541.736 785.257 540.683 783.958 540.683Z" fill="white"/>
<path d="M832.968 540.683H828.683C827.383 540.683 826.33 541.736 826.33 543.036C826.33 544.335 827.383 545.388 828.683 545.388H832.968C834.267 545.388 835.32 544.335 835.32 543.036C835.32 541.736 834.267 540.683 832.968 540.683Z" fill="white"/>
<path d="M846.853 540.683H842.568C841.269 540.683 840.216 541.736 840.216 543.036C840.216 544.335 841.269 545.388 842.568 545.388H846.853C848.153 545.388 849.206 544.335 849.206 543.036C849.206 541.736 848.153 540.683 846.853 540.683Z" fill="white"/>
<path d="M819.637 540.291H793.004C791.705 540.291 790.651 541.344 790.651 542.643C790.651 543.943 791.705 544.996 793.004 544.996H819.637C820.936 544.996 821.99 543.943 821.99 542.643C821.99 541.344 820.936 540.291 819.637 540.291Z" fill="white"/>
<path d="M884.983 540.291H858.35C857.05 540.291 855.997 541.344 855.997 542.643C855.997 543.943 857.05 544.996 858.35 544.996H884.983C886.282 544.996 887.335 543.943 887.335 542.643C887.335 541.344 886.282 540.291 884.983 540.291Z" fill="white"/>
<path d="M797.027 551.302H792.742C791.443 551.302 790.39 552.355 790.39 553.654C790.39 554.953 791.443 556.007 792.742 556.007H797.027C798.327 556.007 799.38 554.953 799.38 553.654C799.38 552.355 798.327 551.302 797.027 551.302Z" fill="white"/>
<path d="M846.037 551.302H841.752C840.453 551.302 839.399 552.355 839.399 553.654C839.399 554.953 840.453 556.007 841.752 556.007H846.037C847.336 556.007 848.39 554.953 848.39 553.654C848.39 552.355 847.336 551.302 846.037 551.302Z" fill="white"/>
<path d="M859.923 551.302H855.638C854.338 551.302 853.285 552.355 853.285 553.654C853.285 554.953 854.338 556.007 855.638 556.007H859.923C861.222 556.007 862.275 554.953 862.275 553.654C862.275 552.355 861.222 551.302 859.923 551.302Z" fill="white"/>
<path d="M832.707 550.909H806.073C804.774 550.909 803.721 551.963 803.721 553.262C803.721 554.561 804.774 555.614 806.073 555.614H832.707C834.006 555.614 835.059 554.561 835.059 553.262C835.059 551.963 834.006 550.909 832.707 550.909Z" fill="white"/>
<path d="M898.052 550.909H871.419C870.12 550.909 869.066 551.963 869.066 553.262C869.066 554.561 870.12 555.614 871.419 555.614H898.052C899.351 555.614 900.405 554.561 900.405 553.262C900.405 551.963 899.351 550.909 898.052 550.909Z" fill="white"/>
<path d="M810.097 561.921H805.811C804.512 561.921 803.459 562.974 803.459 564.273C803.459 565.572 804.512 566.626 805.811 566.626H810.097C811.396 566.626 812.449 565.572 812.449 564.273C812.449 562.974 811.396 561.921 810.097 561.921Z" fill="white"/>
<path d="M859.106 561.921H854.821C853.522 561.921 852.469 562.974 852.469 564.273C852.469 565.572 853.522 566.626 854.821 566.626H859.106C860.406 566.626 861.459 565.572 861.459 564.273C861.459 562.974 860.406 561.921 859.106 561.921Z" fill="white"/>
<path d="M872.992 561.921H868.707C867.408 561.921 866.354 562.974 866.354 564.273C866.354 565.572 867.408 566.626 868.707 566.626H872.992C874.291 566.626 875.345 565.572 875.345 564.273C875.345 562.974 874.291 561.921 872.992 561.921Z" fill="white"/>
<path d="M845.776 561.528H819.142C817.843 561.528 816.79 562.581 816.79 563.881C816.79 565.18 817.843 566.233 819.142 566.233H845.776C847.075 566.233 848.128 565.18 848.128 563.881C848.128 562.581 847.075 561.528 845.776 561.528Z" fill="white"/>
<path d="M911.122 561.528H884.488C883.189 561.528 882.136 562.581 882.136 563.881C882.136 565.18 883.189 566.233 884.488 566.233H911.122C912.421 566.233 913.474 565.18 913.474 563.881C913.474 562.581 912.421 561.528 911.122 561.528Z" fill="white"/>
<path d="M823.166 572.539H818.881C817.582 572.539 816.528 573.593 816.528 574.892C816.528 576.191 817.582 577.244 818.881 577.244H823.166C824.465 577.244 825.518 576.191 825.518 574.892C825.518 573.593 824.465 572.539 823.166 572.539Z" fill="white"/>
<path d="M872.176 572.539H867.891C866.591 572.539 865.538 573.593 865.538 574.892C865.538 576.191 866.591 577.244 867.891 577.244H872.176C873.475 577.244 874.528 576.191 874.528 574.892C874.528 573.593 873.475 572.539 872.176 572.539Z" fill="white"/>
<path d="M886.061 572.539H881.776C880.477 572.539 879.424 573.593 879.424 574.892C879.424 576.191 880.477 577.244 881.776 577.244H886.061C887.361 577.244 888.414 576.191 888.414 574.892C888.414 573.593 887.361 572.539 886.061 572.539Z" fill="white"/>
<path d="M858.845 572.147H832.212C830.913 572.147 829.859 573.2 829.859 574.5C829.859 575.799 830.913 576.852 832.212 576.852H858.845C860.144 576.852 861.198 575.799 861.198 574.5C861.198 573.2 860.144 572.147 858.845 572.147Z" fill="white"/>
<path d="M832.968 614.764H828.683C827.383 614.764 826.33 615.817 826.33 617.116C826.33 618.416 827.383 619.469 828.683 619.469H832.968C834.267 619.469 835.32 618.416 835.32 617.116C835.32 615.817 834.267 614.764 832.968 614.764Z" fill="white"/>
<path d="M846.853 614.764H842.568C841.269 614.764 840.216 615.817 840.216 617.116C840.216 618.416 841.269 619.469 842.568 619.469H846.853C848.153 619.469 849.206 618.416 849.206 617.116C849.206 615.817 848.153 614.764 846.853 614.764Z" fill="white"/>
<path d="M884.983 615.156H858.35C857.05 615.156 855.997 616.21 855.997 617.509C855.997 618.808 857.05 619.861 858.35 619.861H884.983C886.282 619.861 887.335 618.808 887.335 617.509C887.335 616.21 886.282 615.156 884.983 615.156Z" fill="white"/>
<path d="M783.958 614.764H779.673C778.374 614.764 777.32 615.817 777.32 617.116C777.32 618.416 778.374 619.469 779.673 619.469H783.958C785.257 619.469 786.31 618.416 786.31 617.116C786.31 615.817 785.257 614.764 783.958 614.764Z" fill="white"/>
<path d="M819.637 615.156H793.004C791.705 615.156 790.651 616.21 790.651 617.509C790.651 618.808 791.705 619.861 793.004 619.861H819.637C820.936 619.861 821.99 618.808 821.99 617.509C821.99 616.21 820.936 615.156 819.637 615.156Z" fill="white"/>
<path d="M797.027 604.145H792.742C791.443 604.145 790.39 605.198 790.39 606.498C790.39 607.797 791.443 608.85 792.742 608.85H797.027C798.327 608.85 799.38 607.797 799.38 606.498C799.38 605.198 798.327 604.145 797.027 604.145Z" fill="white"/>
<path d="M846.037 604.145H841.752C840.453 604.145 839.399 605.198 839.399 606.498C839.399 607.797 840.453 608.85 841.752 608.85H846.037C847.336 608.85 848.39 607.797 848.39 606.498C848.39 605.198 847.336 604.145 846.037 604.145Z" fill="white"/>
<path d="M859.923 604.145H855.638C854.338 604.145 853.285 605.198 853.285 606.498C853.285 607.797 854.338 608.85 855.638 608.85H859.923C861.222 608.85 862.275 607.797 862.275 606.498C862.275 605.198 861.222 604.145 859.923 604.145Z" fill="white"/>
<path d="M832.707 604.537H806.073C804.774 604.537 803.721 605.591 803.721 606.89C803.721 608.189 804.774 609.242 806.073 609.242H832.707C834.006 609.242 835.059 608.189 835.059 606.89C835.059 605.591 834.006 604.537 832.707 604.537Z" fill="white"/>
<path d="M810.097 593.527H805.811C804.512 593.527 803.459 594.58 803.459 595.879C803.459 597.178 804.512 598.231 805.811 598.231H810.097C811.396 598.231 812.449 597.178 812.449 595.879C812.449 594.58 811.396 593.527 810.097 593.527Z" fill="white"/>
<path d="M859.106 593.527H854.821C853.522 593.527 852.469 594.58 852.469 595.879C852.469 597.178 853.522 598.231 854.821 598.231H859.106C860.406 598.231 861.459 597.178 861.459 595.879C861.459 594.58 860.406 593.527 859.106 593.527Z" fill="white"/>
<path d="M872.992 593.527H868.707C867.408 593.527 866.354 594.58 866.354 595.879C866.354 597.178 867.408 598.231 868.707 598.231H872.992C874.291 598.231 875.345 597.178 875.345 595.879C875.345 594.58 874.291 593.527 872.992 593.527Z" fill="white"/>
<path d="M845.776 593.919H819.142C817.843 593.919 816.79 594.972 816.79 596.271C816.79 597.57 817.843 598.624 819.142 598.624H845.776C847.075 598.624 848.128 597.57 848.128 596.271C848.128 594.972 847.075 593.919 845.776 593.919Z" fill="white"/>
<path d="M823.166 582.907H818.881C817.582 582.907 816.528 583.961 816.528 585.26C816.528 586.559 817.582 587.612 818.881 587.612H823.166C824.465 587.612 825.518 586.559 825.518 585.26C825.518 583.961 824.465 582.907 823.166 582.907Z" fill="white"/>
<path d="M872.176 582.907H867.891C866.591 582.907 865.538 583.961 865.538 585.26C865.538 586.559 866.591 587.612 867.891 587.612H872.176C873.475 587.612 874.528 586.559 874.528 585.26C874.528 583.961 873.475 582.907 872.176 582.907Z" fill="white"/>
<path d="M886.061 582.907H881.776C880.477 582.907 879.424 583.961 879.424 585.26C879.424 586.559 880.477 587.612 881.776 587.612H886.061C887.361 587.612 888.414 586.559 888.414 585.26C888.414 583.961 887.361 582.907 886.061 582.907Z" fill="white"/>
<path d="M858.845 583.3H832.212C830.913 583.3 829.859 584.353 829.859 585.653C829.859 586.952 830.913 588.005 832.212 588.005H858.845C860.144 588.005 861.198 586.952 861.198 585.653C861.198 584.353 860.144 583.3 858.845 583.3Z" fill="white"/>
<path d="M761.175 739.212L741.059 707.413L804.202 657.078L830.264 628.204C833.65 624.452 837.962 621.655 842.767 620.092C847.573 618.529 852.705 618.255 857.65 619.296C862.595 620.338 867.18 622.659 870.947 626.027C874.714 629.396 877.531 633.694 879.116 638.493C881.465 645.603 880.96 653.349 877.707 660.094C874.454 666.839 868.708 672.057 861.681 674.645L820.468 689.828L761.175 739.212Z" fill="#FFB6B6"/>
<path d="M289.166 508.651V663.201H397.438V508.651C397.44 507.54 397.086 506.457 396.427 505.562C395.767 504.667 394.839 504.007 393.777 503.679C393.276 503.513 392.752 503.432 392.225 503.438H294.395C293.709 503.436 293.03 503.57 292.396 503.831C291.762 504.093 291.186 504.477 290.7 504.961C290.214 505.445 289.829 506.02 289.566 506.653C289.302 507.287 289.167 507.966 289.166 508.651V508.651ZM331.42 561.755C331.448 558.709 332.679 555.796 334.843 553.652C337.008 551.507 339.931 550.304 342.978 550.304C346.025 550.304 348.949 551.507 351.113 553.652C353.278 555.796 354.508 558.709 354.536 561.755V579.688C354.521 582.743 353.296 585.668 351.13 587.823C348.964 589.977 346.033 591.187 342.978 591.187C339.923 591.187 336.992 589.977 334.826 587.823C332.66 585.668 331.436 582.743 331.42 579.688V561.755Z" fill="#585497"/>
<path d="M288.835 658.259V673.162C288.837 673.934 289.144 674.674 289.689 675.221C290.233 675.769 290.971 676.079 291.743 676.086H394.862C395.635 676.082 396.375 675.772 396.92 675.224C397.465 674.676 397.771 673.935 397.77 673.162V658.259H288.835Z" fill="#55768E"/>
<path d="M118.839 275.802V557.988C118.842 561.584 120.272 565.032 122.814 567.575C125.357 570.118 128.805 571.548 132.401 571.55H550.572C554.168 571.548 557.616 570.118 560.159 567.575C562.702 565.032 564.132 561.584 564.134 557.988V275.802C564.126 272.209 562.694 268.766 560.152 266.227C557.61 263.687 554.165 262.259 550.572 262.255H132.401C128.808 262.259 125.364 263.688 122.822 266.227C120.28 268.766 118.847 272.209 118.839 275.802Z" fill="#55768E"/>
<path d="M128.648 279.313V554.507C128.652 556.429 129.416 558.27 130.775 559.629C132.134 560.987 133.975 561.752 135.897 561.756H547.091C549.012 561.752 550.854 560.987 552.212 559.629C553.571 558.27 554.336 556.429 554.339 554.507V279.313C554.339 277.389 553.576 275.544 552.217 274.183C550.858 272.821 549.014 272.054 547.091 272.05H135.897C133.973 272.054 132.13 272.821 130.771 274.183C129.412 275.544 128.649 277.389 128.648 279.313Z" fill="white"/>
<path d="M204.959 675.076C205.378 675.601 205.91 676.024 206.515 676.313C207.121 676.603 207.784 676.752 208.455 676.748H453.089C453.758 676.748 454.419 676.598 455.023 676.31C455.626 676.021 456.158 675.602 456.58 675.083C457.001 674.563 457.302 673.956 457.459 673.306C457.616 672.656 457.627 671.978 457.489 671.324L453.692 653.286C453.535 652.55 453.196 651.866 452.706 651.294C452.217 650.723 451.592 650.284 450.889 650.016C450.38 649.816 449.838 649.714 449.292 649.714H212.238C211.691 649.714 211.149 649.816 210.641 650.016C209.938 650.284 209.313 650.723 208.823 651.294C208.334 651.866 207.995 652.55 207.838 653.286L204.04 671.324C203.905 671.978 203.917 672.654 204.076 673.303C204.235 673.952 204.537 674.558 204.959 675.076Z" fill="#585497"/>
<path d="M533.747 309.959H148.994C148.595 309.95 148.214 309.785 147.934 309.499C147.655 309.213 147.498 308.829 147.498 308.429C147.498 308.029 147.655 307.645 147.934 307.359C148.214 307.073 148.595 306.908 148.994 306.899H533.747C534.147 306.908 534.527 307.073 534.807 307.359C535.087 307.645 535.244 308.029 535.244 308.429C535.244 308.829 535.087 309.213 534.807 309.499C534.527 309.785 534.147 309.95 533.747 309.959V309.959Z" fill="#55768E"/>
<path d="M175.185 299.087C180.137 299.087 184.151 294.982 184.151 289.92C184.151 284.857 180.137 280.753 175.185 280.753C170.232 280.753 166.218 284.857 166.218 289.92C166.218 294.982 170.232 299.087 175.185 299.087Z" fill="#FF7676"/>
<path d="M206.161 299.087C211.113 299.087 215.128 294.982 215.128 289.92C215.128 284.857 211.113 280.753 206.161 280.753C201.209 280.753 197.194 284.857 197.194 289.92C197.194 294.982 201.209 299.087 206.161 299.087Z" fill="#FFF84B"/>
<path d="M237.137 299.087C242.089 299.087 246.104 294.982 246.104 289.92C246.104 284.857 242.089 280.753 237.137 280.753C232.185 280.753 228.17 284.857 228.17 289.92C228.17 294.982 232.185 299.087 237.137 299.087Z" fill="#3DEB59"/>
<path d="M515.094 283.02H493.093C492.658 283.03 492.244 283.21 491.94 283.521C491.636 283.832 491.466 284.25 491.466 284.685C491.466 285.12 491.636 285.538 491.94 285.849C492.244 286.16 492.658 286.34 493.093 286.35H515.094C515.531 286.344 515.949 286.166 516.256 285.854C516.563 285.543 516.736 285.123 516.736 284.685C516.736 284.248 516.563 283.828 516.256 283.516C515.949 283.204 515.531 283.026 515.094 283.02Z" fill="#55768E"/>
<path d="M515.094 289.274H493.093C492.657 289.284 492.243 289.463 491.939 289.774C491.634 290.086 491.464 290.504 491.464 290.939C491.464 291.374 491.634 291.793 491.939 292.104C492.243 292.415 492.657 292.595 493.093 292.604H515.094C515.532 292.599 515.95 292.421 516.258 292.11C516.566 291.798 516.739 291.377 516.739 290.939C516.739 290.501 516.566 290.08 516.258 289.769C515.95 289.457 515.532 289.279 515.094 289.274V289.274Z" fill="#55768E"/>
<path d="M515.094 295.527H493.093C492.658 295.537 492.244 295.717 491.94 296.029C491.636 296.34 491.466 296.757 491.466 297.193C491.466 297.628 491.636 298.045 491.94 298.356C492.244 298.668 492.658 298.848 493.093 298.858H515.094C515.531 298.851 515.949 298.673 516.256 298.362C516.563 298.05 516.736 297.63 516.736 297.193C516.736 296.755 516.563 296.335 516.256 296.023C515.949 295.712 515.531 295.534 515.094 295.527V295.527Z" fill="#55768E"/>
<path d="M387.341 393.14H320.749C318.032 393.14 315.83 395.343 315.83 398.059V404.565C315.83 407.282 318.032 409.484 320.749 409.484H387.341C390.058 409.484 392.26 407.282 392.26 404.565V398.059C392.26 395.343 390.058 393.14 387.341 393.14Z" fill="#63BDFF"/>
<path d="M426.158 425.827H281.934C279.217 425.827 277.015 428.03 277.015 430.746V437.252C277.015 439.969 279.217 442.171 281.934 442.171H426.158C428.875 442.171 431.077 439.969 431.077 437.252V430.746C431.077 428.03 428.875 425.827 426.158 425.827Z" fill="#E6E6E6"/>
<path d="M426.158 458.515H281.934C279.217 458.515 277.015 460.717 277.015 463.434V469.94C277.015 472.656 279.217 474.859 281.934 474.859H426.158C428.875 474.859 431.077 472.656 431.077 469.94V463.434C431.077 460.717 428.875 458.515 426.158 458.515Z" fill="#E6E6E6"/>
<path fill-rule="evenodd" clip-rule="evenodd" d="M438.384 567.971L438.71 569.003L438.71 569.003L438.71 569.003V569.02C434.523 573.601 431.062 579.277 427.305 585.439C424.676 589.751 421.901 594.301 418.632 598.88L418.625 598.89L418.625 598.89C418.3 599.35 417.976 599.811 417.635 600.272C413.3 606.392 409.743 613.027 407.045 620.024C389.82 662.88 387.758 733.619 388.445 775.185C388.462 775.993 387.654 776.836 386.692 777.73C386.331 778.073 385.97 778.417 385.626 778.761C386.035 782.797 386.144 784.207 386.183 784.711C386.203 784.963 386.205 784.988 386.218 785.001C386.219 785.002 386.221 785.003 386.222 785.005C386.268 785.042 386.429 785.177 387.376 790.44L447.649 777.057L453.408 802.312L460.13 795.178L473.555 724.886L481.36 708.177V708.211L482.941 789.11L478.558 800.077L479.71 804.277C477.526 800.923 474.161 799.934 469.051 806.487C465.559 810.981 461.766 815.528 458.014 820.028C454.359 824.409 450.743 828.745 447.477 832.943C457.121 836.846 466.92 840.375 476.873 843.533C479.019 844.219 481.182 844.872 483.345 845.524L483.354 845.527L484.746 845.939C517.74 855.696 551.849 861.179 586.239 862.253C587.894 862.301 589.52 862.334 591.103 862.366L591.123 862.366L591.482 862.373C592.084 862.391 592.668 862.408 593.253 862.408L593.263 862.408C595.185 862.425 597.09 862.442 599.011 862.442C602.896 862.442 606.764 862.385 610.615 862.27C639.116 861.467 667.45 857.635 695.14 850.838C694.951 839.407 694.436 826.05 693.696 811.782C693.525 808.298 691.526 804.67 689.504 801.001C687.465 797.3 685.403 793.558 685.17 789.881C685.008 787.147 686.638 784.493 688.274 781.829C689.93 779.134 691.592 776.429 691.41 773.619C690.116 754.585 688.644 750.126 687.219 745.814C686.07 742.333 684.951 738.946 683.984 728.066C683.761 725.687 683.556 723.41 683.367 721.236L688.342 731.856L701.764 802.142L708.464 809.258L714.236 784.009L716.948 783.453L765.86 773.323L780.117 818.6C783.33 813.246 784.596 806.947 783.7 800.768C782.805 794.588 779.803 788.908 775.202 784.686C774.229 783.805 773.417 782.948 773.44 782.136C774.252 733.247 771.261 643.976 744.255 607.234C740.551 602.197 737.486 597.17 734.596 592.429C730.796 586.194 727.298 580.455 723.044 575.846C723.036 575.838 723.03 575.829 723.025 575.821C723.018 575.809 723.012 575.8 722.998 575.8L704.783 545.975L704.784 545.968L703.667 544.128L702.612 543.608L702.413 543.509L702.413 543.51L702.412 543.509L625.794 505.587L621.634 494.929C620.422 491.859 618.319 489.221 615.595 487.355C612.872 485.49 609.653 484.481 606.352 484.46L555.88 484.254C553.261 484.242 550.677 484.855 548.342 486.042C546.007 487.229 543.989 488.955 542.455 491.078L528.788 510.005L438.384 567.971Z" fill="url(#paint2_linear_24_334)"/>
<path d="M582.574 469.89C619.657 469.89 649.719 439.828 649.719 402.744C649.719 365.661 619.657 335.599 582.574 335.599C545.49 335.599 515.428 365.661 515.428 402.744C515.428 439.828 545.49 469.89 582.574 469.89Z" fill="#FFB6B6"/>
<path d="M673.329 355.843C672.809 355.287 672.181 354.842 671.485 354.534C670.788 354.226 670.037 354.061 669.276 354.05L670.285 351.247C670.615 350.364 670.704 349.41 670.543 348.481C670.382 347.553 669.977 346.684 669.37 345.963C668.763 345.242 667.975 344.696 667.087 344.38C666.2 344.064 665.244 343.99 664.318 344.165L660.641 344.873L660.987 342.417C661.12 341.502 661.013 340.568 660.675 339.708C660.338 338.847 659.783 338.089 659.063 337.508C658.344 336.927 657.486 336.544 656.574 336.395C655.661 336.246 654.726 336.338 653.86 336.66C653.072 336.97 652.224 337.1 651.379 337.04C650.534 336.98 649.714 336.732 648.977 336.314C648.238 335.908 647.596 335.346 647.096 334.667C646.597 333.987 646.251 333.207 646.084 332.381L644.803 326.202L644.667 325.871C638.429 315.473 626.434 307.908 611.756 305.135C598.691 302.649 585.295 303.915 572.38 305.105C567.257 305.587 561.47 306.13 556.648 309.084C552.549 311.615 549.083 316.678 549.792 321.787C537.058 317.884 523.405 325.675 516.639 335.5C508.622 347.194 507.311 361.841 507.1 373.294C506.528 400.388 512.119 422.555 523.677 439.191C524.521 440.397 524.731 442.913 526.404 443.757L526.058 443.2C527.926 444.134 529.825 445.641 529.117 447.253C527.082 451.895 540.599 462.157 550.123 465.547C567.498 471.741 590.599 471.213 606.844 468.983L607.416 465.14C613.278 464.342 617.407 462.82 618.568 460.439C620.617 458.691 622.365 457.124 623.887 455.677L623.902 455.662C623.932 455.632 623.992 455.587 624.023 455.556C631.361 448.519 633.064 444.511 633.833 438.408C634.571 432.425 633.26 426.352 631.919 420.882C660.159 425.252 620.798 390.804 647.109 384.143C647.41 384.05 647.717 383.975 648.028 383.917C648.796 383.737 649.565 383.556 650.303 383.345C653.863 382.379 657.271 380.923 660.43 379.02C667.784 374.544 670.21 368.607 674.007 361.916C674.555 360.964 674.785 359.861 674.663 358.769C674.541 357.677 674.074 356.652 673.329 355.843V355.843Z" fill="#585497"/>
<path d="M820.058 695.443C820.043 698.081 820.013 701.772 819.892 706.338C819.877 706.971 819.862 707.619 819.847 708.282C819.651 716.676 819.455 723.713 819.139 731.534C819.124 732.077 819.109 732.604 819.079 733.147C818.657 744.057 817.994 756.76 816.848 776.877C814.724 814.038 811.017 781.986 807.295 795.021C807.114 795.669 806.918 796.437 806.737 797.342C806.173 800.622 805.222 803.824 803.904 806.88C801.93 808.056 799.896 809.186 797.891 810.316C792.18 813.496 786.378 816.555 780.532 819.463C777.246 821.091 773.946 822.688 770.631 824.225C770.104 824.466 769.591 824.707 769.079 824.933C752.102 832.786 734.606 839.462 716.713 844.915C713.217 845.97 709.736 846.995 706.21 847.944C702.533 848.969 698.856 849.933 695.134 850.837C667.445 857.635 639.111 861.469 610.611 862.275C606.768 862.395 602.896 862.441 599.008 862.441C597.079 862.441 595.18 862.426 593.251 862.41C592.664 862.41 592.076 862.395 591.488 862.38C589.785 862.335 588.022 862.305 586.244 862.26C551.855 861.187 517.745 855.702 484.753 845.94L483.351 845.533C481.182 844.87 479.027 844.222 476.872 843.529C466.926 840.379 457.126 836.853 447.472 832.95C440.103 829.981 432.819 826.797 425.621 823.396C425.556 823.378 425.494 823.348 425.44 823.306C423.933 822.613 422.412 821.889 420.905 821.151C420.709 821.045 420.498 820.94 420.287 820.834C414.666 818.092 409.105 815.219 403.605 812.215C398.979 801.591 392.469 799.557 388.43 790.214C387.255 787.438 386.405 784.535 385.899 781.564C385.899 781.534 385.884 781.504 385.884 781.459C386.306 787.064 384.09 771.513 385.869 781.398C385.854 781.217 385.839 781.021 385.823 780.795C385.778 780.253 385.718 779.59 385.628 778.761C380.459 728.294 380.79 670.579 378.545 623.021C378.394 619.947 378.239 617.003 378.078 614.19C378.033 613.256 377.972 612.337 377.912 611.432C378.018 611.161 378.138 610.875 378.274 610.604C378.303 610.525 378.338 610.45 378.379 610.378C378.424 610.284 378.474 610.194 378.53 610.106C378.56 610.061 378.605 610.001 378.635 609.956C378.657 609.904 378.683 609.854 378.711 609.805C378.846 609.594 378.997 609.368 379.163 609.157C379.238 609.067 379.298 608.991 379.374 608.916C379.426 608.839 379.487 608.768 379.555 608.705C379.601 608.633 379.657 608.567 379.72 608.509C379.781 608.449 379.841 608.373 379.916 608.298C379.949 608.251 379.989 608.21 380.037 608.178C380.156 608.041 380.287 607.915 380.429 607.801C380.966 607.306 381.541 606.853 382.147 606.445C382.357 606.309 382.584 606.173 382.795 606.023C384.313 605.114 385.912 604.347 387.571 603.732C388.144 603.521 388.717 603.325 389.335 603.114C389.561 603.054 389.772 602.979 389.998 602.903C390.329 602.798 390.661 602.692 391.007 602.617C392.725 602.105 394.579 601.668 396.583 601.261C396.824 601.216 397.08 601.17 397.336 601.11C397.698 601.035 398.075 600.974 398.451 600.914C398.964 600.824 399.491 600.733 400.019 600.643C404.494 599.935 409.573 599.407 415.178 599.061C415.706 599.031 416.233 599 416.761 598.97C417.378 598.94 417.996 598.91 418.629 598.88C419.157 598.85 419.699 598.835 420.242 598.82C420.769 598.789 421.311 598.774 421.869 598.759C423.391 598.714 424.958 598.669 426.556 598.639C431.106 598.548 435.899 598.578 440.932 598.684C443.267 598.744 445.648 598.804 448.09 598.91C448.255 598.91 448.406 598.925 448.557 598.925C450.681 599 452.821 599.091 455.021 599.211C456.558 599.287 458.111 599.362 459.663 599.453C461.124 599.543 462.601 599.633 464.093 599.739C465.253 599.799 466.414 599.889 467.589 599.965C468.584 600.04 469.578 600.116 470.573 600.176L471.929 600.266C472.667 600.327 473.406 600.372 474.159 600.447C475.817 600.583 477.474 600.718 479.162 600.854C480.835 601.005 482.538 601.155 484.241 601.306C485.943 601.457 487.661 601.622 489.379 601.788C489.56 601.803 489.726 601.818 489.891 601.833C491.459 601.999 493.026 602.15 494.608 602.316C494.97 602.346 495.347 602.376 495.708 602.421C497.217 602.573 498.755 602.75 500.277 602.912C500.744 602.962 501.209 603.011 501.678 603.062C502.87 603.192 504.046 603.305 505.247 603.446C506.829 603.627 508.442 603.792 510.009 604.003C511.229 604.139 512.45 604.275 513.671 604.425C515.584 604.651 517.528 604.892 519.472 605.149C520.211 605.239 520.949 605.329 521.687 605.435C527.233 606.128 532.839 606.897 538.535 607.695C547.169 608.916 555.94 610.242 564.77 611.674C573.616 613.105 582.512 614.617 591.458 616.209C593.718 616.616 595.979 617.023 598.254 617.445C599.279 617.641 600.304 617.837 601.328 618.033C603.076 618.349 604.824 618.681 606.572 619.012C608.32 619.344 610.068 619.675 611.816 620.022C613.896 620.429 615.991 620.836 618.07 621.242C631.768 623.955 645.391 626.848 658.682 629.877C660.867 630.374 663.052 630.887 665.222 631.384C669.562 632.394 673.861 633.418 678.121 634.458C679.296 634.729 680.457 635.016 681.617 635.302C684.51 636.025 687.404 636.749 690.252 637.487L690.749 637.623C692.844 638.135 694.893 638.663 696.942 639.205C701.78 640.471 706.537 641.752 711.213 643.048C714.317 643.907 717.386 644.776 720.42 645.655C724.956 646.966 729.402 648.292 733.726 649.633C734.796 649.964 735.866 650.296 736.921 650.612C740.086 651.592 743.205 652.586 746.234 653.581C748.645 654.365 750.996 655.163 753.316 655.962C755.637 656.761 757.913 657.559 760.143 658.358C761.574 658.87 762.991 659.413 764.407 659.925C766.442 660.679 768.446 661.432 770.405 662.186C771.008 662.412 771.595 662.653 772.183 662.879C772.56 663.045 772.921 663.18 773.283 663.331C773.991 663.617 774.715 663.888 775.408 664.175C776.116 664.446 776.809 664.732 777.503 665.034C778.181 665.305 778.874 665.591 779.537 665.878C780.215 666.149 780.878 666.435 781.541 666.736C782.099 666.963 782.641 667.204 783.169 667.445C784.238 667.912 785.308 668.379 786.348 668.861C786.861 669.102 787.373 669.328 787.885 669.569L789.061 670.112C789.226 670.202 789.392 670.278 789.558 670.353C789.935 670.534 790.326 670.73 790.703 670.911C791.577 671.318 792.436 671.755 793.28 672.161C794.41 672.734 795.51 673.307 796.565 673.864C797.635 674.437 798.675 675.01 799.669 675.567C799.835 675.657 799.986 675.748 800.152 675.838C800.378 675.959 800.604 676.095 800.83 676.215C801.598 676.652 802.337 677.104 803.075 677.541C804.522 678.43 805.893 679.304 807.174 680.178C807.46 680.374 807.731 680.57 808.018 680.751C808.967 681.429 809.871 682.092 810.715 682.77C810.715 682.785 810.715 682.785 810.73 682.785C811.017 682.996 811.288 683.222 811.559 683.433C811.785 683.644 812.026 683.825 812.252 684.036C813.036 684.714 813.759 685.362 814.422 686.025C814.644 686.23 814.856 686.446 815.055 686.673C815.143 686.746 815.224 686.826 815.296 686.914C815.598 687.215 815.869 687.517 816.125 687.818C816.165 687.86 816.2 687.905 816.23 687.954C816.592 688.376 816.924 688.798 817.24 689.22C817.391 689.431 817.557 689.642 817.692 689.853C817.873 690.109 818.054 690.38 818.205 690.636C818.34 690.847 818.461 691.073 818.581 691.284C818.901 691.827 819.173 692.397 819.395 692.987C819.564 693.387 819.7 693.8 819.802 694.223C819.916 694.623 820.002 695.031 820.058 695.443V695.443Z" fill="#585497"/>
<path opacity="0.2" d="M820.059 695.444C820.044 698.081 820.013 701.773 819.893 706.339C819.878 706.972 819.848 707.619 819.833 708.283C819.682 714.687 819.456 722.598 819.139 731.534C819.124 732.077 819.109 732.604 819.079 733.147C818.657 744.057 817.994 756.76 816.849 776.878C814.724 814.038 811.017 781.986 807.295 795.021C796.957 788.662 785.625 782.001 773.51 775.16C771.325 773.924 769.12 772.683 766.894 771.438C742.663 757.921 715.599 743.755 687.344 729.726C686.229 729.169 685.099 728.611 683.984 728.068C619.261 696.076 548.617 664.959 491.384 644.193C480.338 640.185 469.79 636.568 459.874 633.388C438.988 626.713 420.935 622.041 407.041 620.022C392.575 617.912 382.584 618.666 378.545 623.021C378.395 619.947 378.239 617.003 378.078 614.19C378.018 613.256 377.958 612.337 377.897 611.433C377.99 611.184 378.111 610.948 378.228 610.709C378.245 610.674 378.257 610.638 378.274 610.604C378.303 610.526 378.338 610.45 378.38 610.378C378.424 610.284 378.474 610.194 378.53 610.106C378.579 610 378.64 609.899 378.711 609.805C378.847 609.594 378.998 609.368 379.163 609.157C379.285 608.999 379.416 608.848 379.555 608.705C379.601 608.633 379.657 608.567 379.721 608.509C379.781 608.449 379.841 608.373 379.917 608.298C379.949 608.251 379.99 608.21 380.037 608.178C380.156 608.041 380.288 607.915 380.429 607.801C380.967 607.306 381.541 606.853 382.147 606.445C382.358 606.309 382.584 606.173 382.795 606.023C384.314 605.114 385.913 604.348 387.572 603.732C388.145 603.521 388.717 603.325 389.335 603.114C389.561 603.054 389.772 602.979 389.998 602.903C390.33 602.798 390.661 602.692 391.008 602.617C392.726 602.105 394.579 601.668 396.583 601.261C397.186 601.14 397.819 601.02 398.452 600.914C398.964 600.824 399.492 600.733 400.019 600.643C404.495 599.935 409.573 599.407 415.179 599.061C415.706 599.031 416.234 599 416.761 598.97C417.379 598.94 417.997 598.91 418.63 598.88C419.157 598.85 419.699 598.835 420.242 598.82C420.769 598.789 421.312 598.774 421.869 598.759C423.391 598.714 424.959 598.669 426.556 598.639C431.107 598.563 435.899 598.594 440.932 598.699C443.268 598.744 445.649 598.82 448.09 598.925C448.241 598.925 448.406 598.94 448.557 598.94C450.682 599 452.837 599.106 455.022 599.211C456.559 599.287 458.111 599.362 459.663 599.452C461.125 599.543 462.602 599.633 464.093 599.739C465.254 599.799 466.414 599.89 467.589 599.965C468.584 600.04 469.579 600.116 470.573 600.176C471.764 600.266 472.954 600.357 474.16 600.447C475.817 600.583 477.475 600.718 479.163 600.854C480.835 601.005 482.538 601.155 484.241 601.306C485.944 601.457 487.662 601.622 489.379 601.788C489.56 601.803 489.726 601.818 489.892 601.833C491.459 601.999 493.026 602.15 494.609 602.316C503.379 603.205 512.405 604.245 521.688 605.435C527.233 606.143 532.849 606.902 538.535 607.71C547.17 608.931 555.94 610.257 564.771 611.674C573.617 613.105 582.512 614.617 591.458 616.209C593.719 616.616 595.979 617.023 598.255 617.445C601.027 617.957 603.8 618.48 606.573 619.012C608.321 619.344 610.069 619.675 611.817 620.022C613.896 620.429 615.991 620.836 618.071 621.243C631.769 623.955 645.391 626.848 658.682 629.877C660.867 630.374 663.052 630.887 665.222 631.384C669.562 632.394 673.862 633.419 678.122 634.458C679.297 634.745 680.457 635.031 681.618 635.317C684.526 636.041 687.404 636.764 690.252 637.487V637.502C690.418 637.532 690.584 637.578 690.75 637.623C692.829 638.15 694.894 638.678 696.943 639.22C701.78 640.486 706.537 641.762 711.214 643.048C714.318 643.922 717.392 644.781 720.421 645.655C724.957 646.981 729.402 648.307 733.727 649.633C734.797 649.965 735.867 650.296 736.922 650.613C740.086 651.607 743.19 652.597 746.234 653.581C748.645 654.365 750.996 655.163 753.317 655.962C755.638 656.761 757.913 657.559 760.143 658.358C761.59 658.871 763.006 659.398 764.408 659.91C766.457 660.664 768.446 661.417 770.405 662.186C771.008 662.412 771.596 662.653 772.184 662.879C773.284 663.301 774.354 663.738 775.408 664.175C776.117 664.446 776.81 664.732 777.503 665.034C778.181 665.305 778.874 665.591 779.537 665.878C780.215 666.149 780.879 666.435 781.542 666.737C782.099 666.963 782.642 667.204 783.169 667.445C784.239 667.912 785.309 668.379 786.349 668.861C786.861 669.102 787.373 669.329 787.886 669.57L789.061 670.112C789.227 670.203 789.393 670.278 789.558 670.353C790.839 670.956 792.075 671.559 793.28 672.162C794.411 672.734 795.511 673.307 796.566 673.864C797.816 674.527 799.007 675.175 800.152 675.838C800.378 675.959 800.604 676.095 800.83 676.215C801.599 676.652 802.337 677.104 803.075 677.541C804.522 678.43 805.893 679.304 807.174 680.178C808.44 681.052 809.616 681.911 810.716 682.77C810.716 682.785 810.716 682.785 810.731 682.785C811.258 683.207 811.77 683.629 812.253 684.036C813.036 684.714 813.76 685.362 814.423 686.025C814.645 686.23 814.856 686.446 815.056 686.673C815.143 686.746 815.224 686.827 815.297 686.914C815.613 687.261 815.93 687.607 816.231 687.954C816.593 688.376 816.924 688.798 817.241 689.22C817.391 689.431 817.557 689.642 817.693 689.853C817.874 690.109 818.054 690.38 818.205 690.636C818.341 690.847 818.461 691.073 818.582 691.284C818.902 691.827 819.174 692.397 819.396 692.987C819.56 693.389 819.696 693.802 819.802 694.223C819.917 694.623 820.002 695.031 820.059 695.444V695.444Z" fill="black"/>
<defs>
<linearGradient id="paint0_linear_24_334" x1="572.177" y1="49.407" x2="797.57" y2="848.728" gradientUnits="userSpaceOnUse">
<stop stop-color="#FF7AAA"/>
<stop offset="1" stop-color="#FF3F3F" stop-opacity="0.53"/>
</linearGradient>
<linearGradient id="paint1_linear_24_334" x1="593.814" y1="0.0939941" x2="593.814" y2="621.323" gradientUnits="userSpaceOnUse">
<stop stop-color="#55768E"/>
<stop offset="1" stop-color="#19252E" stop-opacity="0.61"/>
</linearGradient>
<linearGradient id="paint2_linear_24_334" x1="584.803" y1="484.254" x2="584.803" y2="862.442" gradientUnits="userSpaceOnUse">
<stop stop-color="#55768E"/>
<stop offset="1" stop-color="#1D3242"/>
</linearGradient>
</defs>
</svg>
