<svg id="visual" viewBox="0 0 900 600" width="900" height="600" xmlns="http://www.w3.org/2000/svg" xmlns:xlink="http://www.w3.org/1999/xlink" version="1.1"><rect x="0" y="0" width="900" height="600" fill="#ffffff"></rect><path d="M0 448L21.5 442.7C43 437.3 86 426.7 128.8 421.8C171.7 417 214.3 418 257.2 409.2C300 400.3 343 381.7 385.8 381.2C428.7 380.7 471.3 398.3 514.2 398.2C557 398 600 380 642.8 372.2C685.7 364.3 728.3 366.7 771.2 380.5C814 394.3 857 419.7 878.5 432.3L900 445L900 601L878.5 601C857 601 814 601 771.2 601C728.3 601 685.7 601 642.8 601C600 601 557 601 514.2 601C471.3 601 428.7 601 385.8 601C343 601 300 601 257.2 601C214.3 601 171.7 601 128.8 601C86 601 43 601 21.5 601L0 601Z" fill="#ff291a"></path><path d="M0 474L21.5 461.5C43 449 86 424 128.8 417.7C171.7 411.3 214.3 423.7 257.2 437.2C300 450.7 343 465.3 385.8 471.7C428.7 478 471.3 476 514.2 473.5C557 471 600 468 642.8 463.5C685.7 459 728.3 453 771.2 449.2C814 445.3 857 443.7 878.5 442.8L900 442L900 601L878.5 601C857 601 814 601 771.2 601C728.3 601 685.7 601 642.8 601C600 601 557 601 514.2 601C471.3 601 428.7 601 385.8 601C343 601 300 601 257.2 601C214.3 601 171.7 601 128.8 601C86 601 43 601 21.5 601L0 601Z" fill="#ff0055"></path><path d="M0 445L21.5 455.8C43 466.7 86 488.3 128.8 494.8C171.7 501.3 214.3 492.7 257.2 482.7C300 472.7 343 461.3 385.8 456.3C428.7 451.3 471.3 452.7 514.2 461C557 469.3 600 484.7 642.8 493.7C685.7 502.7 728.3 505.3 771.2 504.7C814 504 857 500 878.5 498L900 496L900 601L878.5 601C857 601 814 601 771.2 601C728.3 601 685.7 601 642.8 601C600 601 557 601 514.2 601C471.3 601 428.7 601 385.8 601C343 601 300 601 257.2 601C214.3 601 171.7 601 128.8 601C86 601 43 601 21.5 601L0 601Z" fill="#ff0086"></path><path d="M0 489L21.5 493C43 497 86 505 128.8 507.3C171.7 509.7 214.3 506.3 257.2 508.3C300 510.3 343 517.7 385.8 520.3C428.7 523 471.3 521 514.2 517.3C557 513.7 600 508.3 642.8 504.8C685.7 501.3 728.3 499.7 771.2 501.2C814 502.7 857 507.3 878.5 509.7L900 512L900 601L878.5 601C857 601 814 601 771.2 601C728.3 601 685.7 601 642.8 601C600 601 557 601 514.2 601C471.3 601 428.7 601 385.8 601C343 601 300 601 257.2 601C214.3 601 171.7 601 128.8 601C86 601 43 601 21.5 601L0 601Z" fill="#df00bc"></path><path d="M0 553L21.5 556C43 559 86 565 128.8 568.5C171.7 572 214.3 573 257.2 568C300 563 343 552 385.8 551.7C428.7 551.3 471.3 561.7 514.2 561.7C557 561.7 600 551.3 642.8 546C685.7 540.7 728.3 540.3 771.2 541.8C814 543.3 857 546.7 878.5 548.3L900 550L900 601L878.5 601C857 601 814 601 771.2 601C728.3 601 685.7 601 642.8 601C600 601 557 601 514.2 601C471.3 601 428.7 601 385.8 601C343 601 300 601 257.2 601C214.3 601 171.7 601 128.8 601C86 601 43 601 21.5 601L0 601Z" fill="#7109ff"></path></svg>